<svg xmlns="http://www.w3.org/2000/svg" viewBox="0 0 120 120" width="120" height="120">
  <g transform="rotate(-24 24 62)"><path d="M11 56 a7 7 0 0 1 7 -7 H34 a6 6 0 0 1 6 6 V71 a6 6 0 0 1 -6 6 H18 a7 7 0 0 1 -7 -7 Z" fill="#191917"></path><circle cx="21" cy="59" r="3.4" fill="#ffffff"></circle></g>
  <path d="M45 46 V36 a15 15 0 0 1 30 0 V46" fill="none" stroke="#191917" stroke-width="7.5" stroke-linecap="round"></path>
  <path d="M31 45 H89 L83.5 93 a8 8 0 0 1 -8 7 H43.5 a8 8 0 0 1 -8 -7 Z" fill="#191917"></path>
  <g fill="#ffffff"><rect x="45" y="74" width="9" height="14" rx="2.5"></rect><rect x="56" y="66" width="9" height="22" rx="2.5"></rect><rect x="67" y="58" width="9" height="30" rx="2.5"></rect></g>
</svg>