<svg xmlns="http://www.w3.org/2000/svg" viewBox="0 0 660 150" width="660" height="150">
<defs></defs>
<rect width="660" height="150" fill="#1a1a18"></rect>
<g transform="translate(20 15)">
  <g transform="rotate(-24 24 62)"><path d="M11 56 a7 7 0 0 1 7 -7 H34 a6 6 0 0 1 6 6 V71 a6 6 0 0 1 -6 6 H18 a7 7 0 0 1 -7 -7 Z" fill="#c39a36"></path><circle cx="21" cy="59" r="3.4" fill="#1a1a18"></circle></g>
  <path d="M45 46 V36 a15 15 0 0 1 30 0 V46" fill="none" stroke="#f6f2e7" stroke-width="7.5" stroke-linecap="round"></path>
  <path d="M31 45 H89 L83.5 93 a8 8 0 0 1 -8 7 H43.5 a8 8 0 0 1 -8 -7 Z" fill="#f6f2e7"></path>
  <g fill="#1a1a18"><rect x="45" y="74" width="9" height="14" rx="2.5"></rect><rect x="56" y="66" width="9" height="22" rx="2.5"></rect><rect x="67" y="58" width="9" height="30" rx="2.5"></rect></g></g>
<text x="162" y="98" font-family="PJS,sans-serif" font-weight="800" font-size="76" letter-spacing="-2.2"><tspan fill="#f6f2e7">Easy</tspan><tspan fill="#c39a36">Gestão</tspan></text>
</svg>