<svg xmlns="http://www.w3.org/2000/svg" viewBox="0 0 560 480" width="560" height="480">
<defs></defs>
<rect width="560" height="480" fill="#1c4a35"></rect>
<g transform="translate(185 70) scale(1.5833)">
    <g transform="rotate(-24 24 62)"><path d="M11 56 a7 7 0 0 1 7 -7 H34 a6 6 0 0 1 6 6 V71 a6 6 0 0 1 -6 6 H18 a7 7 0 0 1 -7 -7 Z M21 55.6 a3.4 3.4 0 1 0 0 6.8 a3.4 3.4 0 1 0 0 -6.8 Z" fill="#c39a36" fill-rule="evenodd"></path></g>
    <path d="M45 46 V36 a15 15 0 0 1 30 0 V46" fill="none" stroke="#f6f2e7" stroke-width="7.5" stroke-linecap="round"></path>
    <path d="M31 45 H89 L83.5 93 a8 8 0 0 1 -8 7 H43.5 a8 8 0 0 1 -8 -7 Z M47.5 74 H51.5 A2.5 2.5 0 0 1 54 76.5 V85.5 A2.5 2.5 0 0 1 51.5 88 H47.5 A2.5 2.5 0 0 1 45 85.5 V76.5 A2.5 2.5 0 0 1 47.5 74 Z M58.5 66 H62.5 A2.5 2.5 0 0 1 65 68.5 V85.5 A2.5 2.5 0 0 1 62.5 88 H58.5 A2.5 2.5 0 0 1 56 85.5 V68.5 A2.5 2.5 0 0 1 58.5 66 Z M69.5 58 H73.5 A2.5 2.5 0 0 1 76 60.5 V85.5 A2.5 2.5 0 0 1 73.5 88 H69.5 A2.5 2.5 0 0 1 67 85.5 V60.5 A2.5 2.5 0 0 1 69.5 58 Z" fill="#f6f2e7" fill-rule="evenodd"></path>
  </g>
<text x="280" y="370" text-anchor="middle" font-family="&#39;Plus Jakarta Sans&#39;,sans-serif" font-weight="800" font-size="76" letter-spacing="-2.4" fill="#f6f2e7">Easy<tspan fill="#c39a36">Gestão</tspan></text>
<text x="280" y="408" text-anchor="middle" font-family="&#39;Plus Jakarta Sans&#39;,sans-serif" font-weight="600" font-size="16" letter-spacing="1.6" fill="rgba(246,242,231,.7)">GESTÃO FÁCIL PRA SUA LOJA</text>
</svg>